<svg xmlns="http://www.w3.org/2000/svg" viewBox="0 0 32 32" width="32" height="32">
  <!-- Simple brain shape -->
  <path d="M16 4C10 4 6 8 6 14c0 2 0.5 4 1.5 5.5L6 26c0 2 2 2 2 2h4c0 0 2 0 2-2v-6h4v6c0 2 2 2 2 2h4s2 0 2-2l-1.5-6.5C25.5 18 26 16 26 14c0-6-4-10-10-10z" fill="#F4BC7C"/>

  <!-- Gear in center -->
  <g transform="translate(16,14)">
    <!-- Gear teeth -->
    <rect x="-1" y="-6" width="2" height="3" fill="#6B5B73"/>
    <rect x="-1" y="3" width="2" height="3" fill="#6B5B73"/>
    <rect x="-6" y="-1" width="3" height="2" fill="#6B5B73"/>
    <rect x="3" y="-1" width="3" height="2" fill="#6B5B73"/>

    <!-- Gear body -->
    <circle cx="0" cy="0" r="4" fill="#6B5B73"/>
    <circle cx="0" cy="0" r="2" fill="#F4BC7C"/>
  </g>

  <!-- Left arrow (blue) -->
  <path d="M2 14l4-2v1h3v2H6v1l-4-2z" fill="#4FA8F5"/>

  <!-- Right arrow (green) -->
  <path d="M30 14l-4-2v1h-3v2h3v1l4-2z" fill="#7ED321"/>
</svg>