<svg xmlns="http://www.w3.org/2000/svg" viewBox="0 0 1200 675" role="img" aria-labelledby="title desc">
  <title id="title">The Myth of the Behavior Kid featured image</title>
  <desc id="desc">A school behavior systems illustration showing a student supported by classroom environment changes.</desc>
  <defs>
    <linearGradient id="bg" x1="0" x2="1" y1="0" y2="1">
      <stop offset="0" stop-color="#0f172a"/>
      <stop offset="0.48" stop-color="#115e59"/>
      <stop offset="1" stop-color="#10b981"/>
    </linearGradient>
    <radialGradient id="warm" cx="18%" cy="22%" r="60%">
      <stop offset="0" stop-color="#facc15" stop-opacity="0.45"/>
      <stop offset="1" stop-color="#facc15" stop-opacity="0"/>
    </radialGradient>
    <filter id="softShadow" x="-20%" y="-20%" width="140%" height="140%">
      <feDropShadow dx="0" dy="18" stdDeviation="16" flood-color="#020617" flood-opacity="0.24"/>
    </filter>
  </defs>
  <rect width="1200" height="675" fill="url(#bg)"/>
  <rect width="1200" height="675" fill="url(#warm)"/>
  <g opacity="0.18" stroke="#d1fae5" stroke-width="2">
    <path d="M80 140h420M80 210h520M80 280h360M80 350h500"/>
    <path d="M680 104v470M760 104v470M840 104v470M920 104v470M1000 104v470"/>
  </g>
  <g filter="url(#softShadow)">
    <rect x="650" y="130" width="380" height="360" rx="28" fill="#f8fafc"/>
    <rect x="690" y="178" width="300" height="34" rx="17" fill="#d1fae5"/>
    <rect x="690" y="247" width="230" height="20" rx="10" fill="#94a3b8" opacity="0.34"/>
    <rect x="690" y="295" width="255" height="20" rx="10" fill="#94a3b8" opacity="0.28"/>
    <rect x="690" y="343" width="185" height="20" rx="10" fill="#94a3b8" opacity="0.28"/>
    <circle cx="905" cy="405" r="48" fill="#10b981" opacity="0.22"/>
    <path d="M876 406h58M905 377v58" stroke="#059669" stroke-width="14" stroke-linecap="round"/>
  </g>
  <g filter="url(#softShadow)">
    <circle cx="300" cy="300" r="72" fill="#f8fafc"/>
    <path d="M204 512c18-99 66-149 144-149s126 50 144 149" fill="#f8fafc"/>
    <circle cx="300" cy="292" r="30" fill="#10b981" opacity="0.22"/>
    <path d="M208 210c44-56 98-84 162-84 72 0 136 35 192 106" fill="none" stroke="#d1fae5" stroke-width="16" stroke-linecap="round"/>
    <path d="M188 442c-49-45-73-98-73-160 0-42 12-82 36-120" fill="none" stroke="#facc15" stroke-width="16" stroke-linecap="round" opacity="0.86"/>
  </g>
  <text x="80" y="548" fill="#ffffff" font-family="Inter, Arial, sans-serif" font-size="54" font-weight="800">There Are No Behavior Kids</text>
  <text x="82" y="600" fill="#d1fae5" font-family="Inter, Arial, sans-serif" font-size="28" font-weight="600">Look at the environment. Change the system.</text>
</svg>
