<svg xmlns="http://www.w3.org/2000/svg" viewBox="0 0 1280 720" role="img" aria-labelledby="title desc">
  <title id="title">CALABA 2026 PBIS panel thumbnail</title>
  <desc id="desc">Modern PBIS panel thumbnail based on data, practices, and systems.</desc>
  <defs>
    <linearGradient id="bg" x1="0" y1="0" x2="1" y2="1">
      <stop offset="0" stop-color="#f7fbf8"/>
      <stop offset="0.58" stop-color="#eef8f2"/>
      <stop offset="1" stop-color="#dff3ea"/>
    </linearGradient>
    <linearGradient id="green" x1="0" y1="0" x2="1" y2="1">
      <stop offset="0" stop-color="#0f6b55"/>
      <stop offset="1" stop-color="#10b981"/>
    </linearGradient>
    <filter id="shadow" x="-20%" y="-20%" width="140%" height="140%">
      <feDropShadow dx="0" dy="14" stdDeviation="18" flood-color="#0f3128" flood-opacity="0.16"/>
    </filter>
  </defs>
  <rect width="1280" height="720" fill="url(#bg)"/>
  <g opacity="0.28" stroke="#a4d7c4" stroke-width="1.5">
    <path d="M0 126h1280M0 252h1280M0 378h1280M0 504h1280M0 630h1280"/>
    <path d="M152 0v720M304 0v720M456 0v720M608 0v720M760 0v720M912 0v720M1064 0v720"/>
  </g>
  <circle cx="1040" cy="110" r="178" fill="#10b981" opacity="0.11"/>
  <circle cx="190" cy="630" r="214" fill="#0f6b55" opacity="0.08"/>
  <g transform="translate(78 82)">
    <text x="0" y="0" fill="#0f6b55" font-family="Inter, Arial, sans-serif" font-size="28" font-weight="900" letter-spacing="5">CALABA 2026 PANEL</text>
    <text x="0" y="86" fill="#15231f" font-family="Inter, Arial, sans-serif" font-size="64" font-weight="900">How BCBAs Can</text>
    <text x="0" y="158" fill="#15231f" font-family="Inter, Arial, sans-serif" font-size="64" font-weight="900">Support PBIS</text>
    <text x="0" y="214" fill="#51645e" font-family="Inter, Arial, sans-serif" font-size="30" font-weight="700">Best practices, barriers, and solutions</text>
  </g>
  <g transform="translate(90 374)" filter="url(#shadow)">
    <rect x="0" y="0" width="314" height="164" rx="24" fill="#ffffff" stroke="#c5e8da"/>
    <circle cx="58" cy="64" r="24" fill="#1fd18b"/>
    <text x="100" y="74" fill="#0f3128" font-family="Inter, Arial, sans-serif" font-size="34" font-weight="900">Data</text>
    <text x="34" y="126" fill="#60756e" font-family="Inter, Arial, sans-serif" font-size="24" font-weight="700">decision cycles</text>
  </g>
  <g transform="translate(480 374)" filter="url(#shadow)">
    <rect x="0" y="0" width="314" height="164" rx="24" fill="#ffffff" stroke="#c5e8da"/>
    <circle cx="58" cy="64" r="24" fill="#f4c542"/>
    <text x="100" y="74" fill="#0f3128" font-family="Inter, Arial, sans-serif" font-size="34" font-weight="900">Practices</text>
    <text x="34" y="126" fill="#60756e" font-family="Inter, Arial, sans-serif" font-size="24" font-weight="700">adult routines</text>
  </g>
  <g transform="translate(870 374)" filter="url(#shadow)">
    <rect x="0" y="0" width="314" height="164" rx="24" fill="#ffffff" stroke="#c5e8da"/>
    <circle cx="58" cy="64" r="24" fill="#3b82f6"/>
    <text x="100" y="74" fill="#0f3128" font-family="Inter, Arial, sans-serif" font-size="34" font-weight="900">Systems</text>
    <text x="34" y="126" fill="#60756e" font-family="Inter, Arial, sans-serif" font-size="24" font-weight="700">tiered support</text>
  </g>
  <path d="M404 456h76M794 456h76" fill="none" stroke="#0f6b55" stroke-width="8" stroke-linecap="round" stroke-dasharray="18 18"/>
  <g transform="translate(78 622)">
    <rect x="0" y="-28" width="330" height="48" rx="24" fill="url(#green)"/>
    <text x="28" y="4" fill="#ffffff" font-family="Inter, Arial, sans-serif" font-size="22" font-weight="900">School BCBA Systems</text>
  </g>
</svg>
