<svg xmlns="http://www.w3.org/2000/svg" viewBox="0 0 1280 720" role="img" aria-labelledby="title desc">
  <title id="title">2025 PBIS CA Conference BCBAs in PBIS thumbnail</title>
  <desc id="desc">Brand graphic for a systems-level PBIS presentation.</desc>
  <defs>
    <linearGradient id="bg" x1="0" y1="0" x2="1" y2="1">
      <stop offset="0" stop-color="#062719"/>
      <stop offset="0.52" stop-color="#0f6b55"/>
      <stop offset="1" stop-color="#10b981"/>
    </linearGradient>
    <linearGradient id="cream" x1="0" y1="0" x2="0" y2="1">
      <stop offset="0" stop-color="#ffffff"/>
      <stop offset="1" stop-color="#eff8f2"/>
    </linearGradient>
    <filter id="shadow" x="-20%" y="-20%" width="140%" height="140%">
      <feDropShadow dx="0" dy="22" stdDeviation="24" flood-color="#05251c" flood-opacity="0.28"/>
    </filter>
  </defs>
  <rect width="1280" height="720" fill="url(#bg)"/>
  <g opacity="0.16" stroke="#c8fff0" stroke-width="2">
    <path d="M0 96h1280M0 216h1280M0 336h1280M0 456h1280M0 576h1280"/>
    <path d="M132 0v720M264 0v720M396 0v720M528 0v720M660 0v720M792 0v720M924 0v720M1056 0v720M1188 0v720"/>
    <path d="M-80 170c190 78 320-50 500 20s310 118 520-2 286-60 420 28" fill="none"/>
    <path d="M-90 596c170-70 330-8 494-38 220-40 302-154 536-94 160 42 252 44 424-24" fill="none"/>
  </g>
  <g transform="translate(80 78)">
    <text x="0" y="0" fill="#bff7df" font-family="Inter, Arial, sans-serif" font-size="28" font-weight="900" letter-spacing="5">2025 PBIS CA CONFERENCE</text>
    <text x="0" y="96" fill="#ffffff" font-family="Inter, Arial, sans-serif" font-size="72" font-weight="900">BCBAs in PBIS</text>
    <text x="0" y="170" fill="#ffffff" font-family="Inter, Arial, sans-serif" font-size="58" font-weight="850">Supporting All Levels</text>
    <text x="0" y="236" fill="#ffffff" font-family="Inter, Arial, sans-serif" font-size="58" font-weight="850">Systemically</text>
    <text x="0" y="306" fill="#dffbf0" font-family="Inter, Arial, sans-serif" font-size="30" font-weight="650">Tier 1 prevention. Tier 2 routines. Tier 3 precision.</text>
  </g>
  <g transform="translate(78 462)" filter="url(#shadow)">
    <rect x="0" y="0" width="260" height="118" rx="24" fill="url(#cream)"/>
    <circle cx="58" cy="58" r="23" fill="#10b981"/>
    <text x="98" y="51" fill="#10231f" font-family="Inter, Arial, sans-serif" font-size="30" font-weight="900">Tier 1</text>
    <text x="98" y="84" fill="#52645e" font-family="Inter, Arial, sans-serif" font-size="20" font-weight="800">schoolwide</text>
  </g>
  <g transform="translate(400 462)" filter="url(#shadow)">
    <rect x="0" y="0" width="260" height="118" rx="24" fill="url(#cream)"/>
    <circle cx="58" cy="58" r="23" fill="#f4c542"/>
    <text x="98" y="51" fill="#10231f" font-family="Inter, Arial, sans-serif" font-size="30" font-weight="900">Tier 2</text>
    <text x="98" y="84" fill="#52645e" font-family="Inter, Arial, sans-serif" font-size="20" font-weight="800">targeted</text>
  </g>
  <g transform="translate(722 462)" filter="url(#shadow)">
    <rect x="0" y="0" width="260" height="118" rx="24" fill="url(#cream)"/>
    <circle cx="58" cy="58" r="23" fill="#3b82f6"/>
    <text x="98" y="51" fill="#10231f" font-family="Inter, Arial, sans-serif" font-size="30" font-weight="900">Tier 3</text>
    <text x="98" y="84" fill="#52645e" font-family="Inter, Arial, sans-serif" font-size="20" font-weight="800">intensive</text>
  </g>
  <path d="M338 520h62M660 520h62" fill="none" stroke="#dffbf0" stroke-width="8" stroke-linecap="round" stroke-dasharray="16 16"/>
  <g transform="translate(1014 478)">
    <rect x="0" y="0" width="180" height="78" rx="39" fill="#10231f" opacity="0.76"/>
    <text x="32" y="49" fill="#ffffff" font-family="Inter, Arial, sans-serif" font-size="24" font-weight="900">robspain.com</text>
  </g>
</svg>
